<?xml version="1.0" encoding="UTF-8"?>
<!DOCTYPE svg PUBLIC "-//W3C//DTD SVG 1.1//EN" "http://www.w3.org/Graphics/SVG/1.1/DTD/svg11.dtd">
<!-- Creator: CorelDRAW X6 -->
<svg xmlns="http://www.w3.org/2000/svg" xml:space="preserve" width="280px" height="215px" version="1.1" style="shape-rendering:geometricPrecision; text-rendering:geometricPrecision; image-rendering:optimizeQuality; fill-rule:evenodd; clip-rule:evenodd"
viewBox="0 0 6385 4862"
 xmlns:xlink="http://www.w3.org/1999/xlink">
 <defs>
  <style type="text/css">
   <![CDATA[
    .fil0 {fill:#a9680b;fill-rule:nonzero}
    .fil1 {fill:#d4be26;fill-rule:nonzero}
    .fil2 {fill:white;fill-rule:nonzero}
   ]]>
  </style>
 </defs>
 <g id="__x0023_Layer_x0020_1">
  <metadata id="CorelCorpID_0Corel-Layer"/>
  <g id="_285153184">
   <path class="fil0" d="M2298 972l-3 3c-19,20 -42,30 -63,31l39 -68c25,-44 2,-85 -37,-85 -32,0 -57,13 -81,54l-20 36 -17 29 -2 2c-30,35 -59,62 -78,62 -9,0 -14,-6 -5,-23l89 -156 34 0 12 -20 -34 0 39 -68 -42 0 -39 68 -38 0 -12 20 38 0 -84 145c-18,31 -5,59 28,59 24,0 51,-18 77,-43 0,53 74,63 119,6l9 0c25,0 64,-15 85,-40 -3,-6 -10,-12 -16,-14zm-89 3l0 0 -2 0c-14,0 -24,11 -24,25 0,5 2,10 4,14l0 1c-20,34 -67,27 -42,-16l32 -55 20 -34c29,-50 69,-30 44,13l-30 52z"/>
   <path class="fil0" d="M2873 972l-3 3c-30,35 -68,62 -98,62 -26,0 -41,-16 -22,-50l4 -7c27,11 77,6 108,-48l6 -10c22,-38 1,-67 -33,-67 -34,0 -60,18 -78,48l-40 69 -2 3c-30,35 -59,62 -78,62 -9,0 -14,-6 -5,-23l60 -105c18,-32 1,-54 -22,-54 -18,0 -37,10 -58,32l66 -116 -42 0 -116 201 -2 3c-30,35 -59,62 -78,62 -9,0 -14,-6 -5,-23l89 -156 34 0 12 -20 -34 0 39 -68 -42 0 -39 68 -38 0 -12 20 38 0 -84 145c-18,31 -5,59 28,59 17,0 35,-9 53,-23l-11 19 42 0 63 -110c64,-80 92,-70 74,-39l-54 94c-18,31 -5,59 28,59 25,0 52,-19 78,-45 2,26 23,45 56,45 47,0 94,-37 128,-77 -3,-6 -10,-12 -16,-14zm-79 -58l0 0c24,-41 66,-34 42,9l-6 10c-20,34 -47,33 -62,28l27 -47z"/>
   <path class="fil0" d="M4390 972l-3 3c-15,18 -34,34 -50,45 13,-40 10,-100 36,-154l-31 -17c-17,24 -55,78 -92,122l0 0 -3 3c-30,35 -59,62 -78,62 -9,0 -14,-6 -5,-23l89 -156 -42 0 -74 129c-32,29 -56,45 -64,41 -10,-4 0,-20 5,-29l81 -142 -42 0 -65 113 -3 3c-19,20 -42,30 -63,31l39 -68c25,-44 2,-85 -37,-85 -32,0 -57,13 -81,54l-20 36 -17 29 -2 2c-30,35 -68,62 -98,62 -26,0 -41,-16 -22,-50l4 -7c27,11 77,6 108,-48l6 -10c22,-38 1,-67 -33,-67 -34,0 -60,18 -78,48l-40 69 -2 3c-34,40 -64,65 -97,79l93 -159 -24 0c0,-17 -18,-40 -44,-40 -22,0 -54,18 -71,48l-40 69c0,0 0,0 0,0l-3 3c-30,35 -59,62 -78,62 -9,0 -14,-6 -5,-23l42 -73c14,-25 8,-40 -6,-56l-23 -28c-6,-8 -6,-16 2,-24l-22 -24c-24,21 -26,45 -11,64l4 5c-18,26 -43,61 -70,93l0 0 -3 3c-19,20 -42,30 -63,31l39 -68c25,-44 2,-85 -37,-85 -32,0 -57,13 -81,54l-20 36 -17 29 -2 2c-34,40 -64,65 -97,79l93 -159 -24 0c0,-17 -18,-40 -44,-40 -22,0 -54,18 -71,48l-58 101c-18,31 -5,59 28,59 12,0 26,-5 40,-14l-12 20c-56,17 -91,40 -91,71 0,40 61,48 91,-3l32 -55c33,-10 66,-30 100,-62 0,53 74,64 119,7l9 0c25,0 64,-15 85,-40 20,-23 36,-44 69,-89l6 7c5,7 7,15 2,24l-44 76c-18,31 -5,59 28,59 21,0 44,-14 67,-34 -1,19 12,34 36,34 12,0 26,-5 40,-14l-12 20c-56,17 -91,40 -91,71 0,40 61,48 91,-3l32 -55c34,-11 67,-31 102,-64 2,26 23,45 56,45 34,0 67,-19 96,-44 -2,54 73,66 119,8l9 0c13,0 30,-4 46,-12 -11,29 -1,48 23,48 23,0 48,-21 68,-40 -4,22 9,40 36,40 34,0 74,-37 108,-77l0 0c24,-27 44,-56 59,-76 -16,43 -8,121 -47,121 -14,0 -20,-15 -20,-15l-26 14c0,0 8,34 46,34 4,0 8,0 12,-1 0,0 1,0 1,0 42,-6 84,-39 116,-76 -2,-6 -10,-13 -16,-14zm-597 -58l0 0c24,-41 66,-34 42,9l-6 10c-20,34 -47,33 -62,28l27 -47zm-794 217l0 0c-9,16 -23,13 -23,2 0,-11 10,-23 42,-36l-19 34zm19 -93l0 0c-9,0 -14,-6 -5,-23l58 -101c22,-39 67,-29 46,9l-32 55c-25,40 -50,60 -68,60zm256 -63l0 0 -2 0c-14,0 -24,11 -24,25 0,5 2,10 4,14l0 1c-20,34 -67,27 -42,-16l32 -55 20 -34c29,-50 69,-30 44,13l-30 52zm261 156l0 0c-9,16 -23,13 -23,2 0,-11 10,-23 42,-36l-19 34zm19 -93l0 0c-9,0 -14,-6 -5,-23l58 -101c22,-39 67,-29 46,9l-32 55c-25,40 -50,60 -68,60zm410 -63l0 0 -2 0c-14,0 -24,11 -24,25 0,5 2,10 4,14l0 1c-20,34 -67,27 -42,-16l32 -55 20 -34c29,-50 69,-30 44,13l-30 52z"/>
  </g>
  <polygon class="fil0" points="1409,928 1810,928 1810,955 1409,955 "/>
  <polygon class="fil0" points="4561,928 4963,928 4963,955 4561,955 "/>
  <g id="_285154288">
   <polygon class="fil1" points="2266,0 2373,0 2357,624 2155,624 2128,366 2100,624 1897,624 1882,0 1988,0 1997,516 2008,516 2074,0 2180,0 2248,516 2258,516 "/>
   <polygon class="fil1" points="2709,516 2709,624 2419,624 2419,0 2709,0 2709,107 2525,107 2525,258 2672,258 2672,365 2525,365 2525,516 "/>
   <polygon class="fil1" points="3005,516 3005,624 2751,624 2751,0 2857,0 2857,516 "/>
   <path class="fil1" d="M3231 394l107 -25 0 189c0,36 -30,66 -65,66l-159 0c-36,0 -65,-30 -65,-66l0 -492c0,-37 29,-66 65,-66l159 0c35,0 65,29 65,66l0 127 -107 25 0 -111 -77 0 0 409 77 0 0 -122z"/>
   <path class="fil1" d="M3626 0c35,0 65,29 65,66l0 492c0,36 -30,66 -65,66l-159 0c-36,0 -65,-30 -65,-66l0 -492c0,-37 29,-66 65,-66l159 0zm-42 107l0 0 -77 0 0 409 77 0 0 -409z"/>
   <polygon class="fil1" points="4039,0 4145,0 4145,624 4038,624 4038,317 3996,476 3892,476 3851,317 3851,624 3745,624 3745,0 3850,0 3945,301 "/>
   <polygon class="fil1" points="4488,516 4488,624 4198,624 4198,0 4488,0 4488,107 4304,107 4304,258 4451,258 4451,365 4304,365 4304,516 "/>
  </g>
  <g id="_285123016">
   <path class="fil2" d="M618 2189c-50,-41 -113,-69 -179,-69 -50,0 -116,29 -116,87 0,61 73,84 120,99l69 21c145,43 256,116 256,284 0,103 -25,210 -108,280 -81,69 -190,98 -295,98 -131,0 -259,-44 -365,-119l116 -218c68,59 148,108 240,108 63,0 131,-32 131,-105 0,-76 -106,-102 -164,-119 -170,-48 -281,-92 -281,-294 0,-211 150,-349 358,-349 105,0 233,33 325,85l-108 210z"/>
   <polygon class="fil2" points="1275,2150 1275,2324 1580,2324 1580,2553 1275,2553 1275,2732 1597,2732 1597,2961 1005,2961 1005,1922 1597,1922 1597,2150 1275,2150 "/>
   <path class="fil2" d="M1797 1922l383 0c289,0 528,227 528,520 0,292 -240,520 -528,520l-383 0 0 -1039zm270 811l0 0 61 0c161,0 299,-88 299,-291 0,-186 -123,-291 -296,-291l-63 0 0 582z"/>
   <path class="fil2" d="M3984 2422c0,336 -241,573 -575,573 -334,0 -575,-237 -575,-573 0,-314 276,-535 575,-535 299,0 575,221 575,535zm-869 1l0 0c0,179 132,310 294,310 161,0 294,-131 294,-310 0,-143 -132,-274 -294,-274 -161,0 -294,131 -294,274z"/>
   <polygon class="fil2" points="4128,1922 4399,1922 4893,2557 4896,2557 4896,1922 5166,1922 5166,2961 4896,2961 4401,2324 4399,2324 4399,2961 4128,2961 "/>
   <path class="fil2" d="M5658 2780l-72 181 -287 0 400 -1039 295 0 391 1039 -288 0 -68 -181 -372 0zm189 -538l0 0 -3 0 -112 331 225 0 -110 -331z"/>
  </g>
  <g id="_285125080">
   <path class="fil2" d="M1501 3996c106,-36 114,-169 10,-169 -29,0 -63,20 -87,62l-142 245c-7,12 -13,21 -20,30 -36,-50 -26,-125 25,-158l-21 -27c-110,70 -78,274 106,274 158,0 230,-189 129,-256zm-130 216l0 0c-31,0 -56,-7 -76,-18 9,-11 18,-24 26,-37l89 -153 14 2c124,26 74,208 -53,208zm57 -240l0 0 43 -73c38,-66 88,-27 61,22 -20,38 -50,50 -104,51z"/>
   <path class="fil2" d="M1947 4167c-9,31 8,57 44,57 21,0 48,-14 73,-34 3,20 19,34 46,34 28,0 59,-19 89,-47 -6,28 8,47 33,47 29,0 61,-26 87,-51 -5,28 12,51 45,51 44,0 94,-47 137,-97 0,-1 -1,-1 -1,-2 29,-34 55,-70 73,-94 -21,55 -10,153 -60,153 -18,0 -25,-19 -25,-19l-33 17c0,0 10,43 58,43 5,0 10,-1 15,-1 1,0 1,0 2,0 39,-5 77,-29 110,-59 1,35 28,60 71,60 60,0 119,-47 163,-97 -4,-7 -13,-15 -20,-18l-4 4c-38,44 -87,79 -124,79 -32,0 -52,-20 -27,-63l5 -9c34,14 98,8 137,-61l8 -13c28,-49 1,-85 -42,-85 -43,0 -77,22 -99,61l-51 88c0,0 -1,-1 -1,-1l-4 4c-19,23 -43,43 -63,57 17,-50 13,-127 46,-195l-40 -21c-22,30 -69,99 -117,154 0,1 1,1 2,2l-2 2c-38,44 -75,79 -98,79 -12,0 -18,-8 -6,-29l112 -197 -53 0 -94 164c-40,36 -71,57 -81,52 -13,-6 0,-25 7,-36l103 -179 -53 0 -84 145c-1,-1 -3,-2 -4,-2l-4 4c-38,44 -75,79 -98,79 -12,0 -18,-8 -6,-29l85 -149 -30 0c2,-22 -21,-53 -55,-53 -28,0 -68,22 -90,61l-53 92c-3,-2 -5,-4 -8,-5l-4 4c-38,44 -87,79 -124,79 -32,0 -52,-20 -27,-63l54 -94c30,-52 84,-44 53,11l-8 13 43 0 8 -13c28,-49 1,-85 -42,-85 -43,0 -77,22 -99,61l-52 90c-2,-1 -3,-2 -5,-3l-4 4c-38,44 -87,79 -124,79 -32,0 -52,-20 -27,-63l5 -9c34,14 98,8 137,-61l8 -13c28,-49 1,-85 -42,-85 -43,0 -76,22 -99,61l-55 95c-33,56 -5,108 58,108 46,0 92,-28 131,-64 -1,37 26,64 71,64 43,0 86,-24 123,-57zm806 -133l0 0c30,-52 84,-44 53,11l-8 13c-25,43 -59,42 -79,35l34 -59zm-753 128l0 0 73 -128c28,-49 85,-36 59,11l-41 72c-32,50 -63,74 -85,74 -12,0 -18,-8 -6,-29zm-336 -128l0 0c30,-52 84,-44 53,11l-8 13c-25,43 -59,42 -79,35l34 -59z"/>
   <path class="fil2" d="M3450 4223c60,0 119,-47 163,-97 -4,-7 -13,-15 -20,-18l-4 4c-38,44 -87,79 -124,79 -32,0 -52,-20 -27,-63l5 -9c34,14 98,8 137,-61l8 -13c28,-49 1,-85 -42,-85 -43,0 -76,22 -99,61l-51 88c-1,0 -1,-1 -2,-1l-4 4c-38,44 -75,79 -98,79 -12,0 -18,-8 -6,-29l76 -133c23,-40 1,-69 -28,-69 -23,0 -47,13 -73,40l84 -146 -53 0 -149 258c-2,-1 -4,-3 -6,-4l-4 4c-38,44 -75,79 -98,79 -12,0 -18,-8 -6,-29l113 -197 43 0 15 -25 -44 0 50 -86 -53 0 -50 86 -48 0 -15 25 48 0 -106 183c-22,39 -7,75 36,75 26,0 55,-17 83,-41l-21 36 53 0 80 -139c81,-102 117,-89 94,-50l-68 119c-22,39 -7,75 36,75 32,0 68,-25 101,-59 2,34 28,59 71,59zm43 -189l0 0c30,-52 84,-44 53,11l-8 13c-25,43 -59,42 -79,35l34 -59z"/>
   <path class="fil2" d="M5047 4108l-4 4c-38,44 -75,79 -98,79 -12,0 -18,-8 -6,-29l178 -308 -53 0 -77 134c-9,-15 -26,-27 -48,-27 -28,0 -68,22 -90,61l-52 89c-1,-1 -2,-1 -3,-2l-4 4c-38,44 -75,79 -98,79 -12,0 -18,-8 -6,-29l76 -133c23,-40 1,-69 -28,-69 -23,0 -47,12 -73,40l20 -34 -53 0 -84 146c-2,-1 -3,-2 -5,-3l-4 4c-38,44 -75,79 -98,79 -12,0 -18,-8 -6,-29l85 -149 -30 0c2,-22 -21,-53 -55,-53 -28,0 -68,22 -90,61l-51 88 -3 3c-38,44 -75,79 -98,79 -12,0 -18,-8 -6,-29l53 -92c18,-32 10,-51 -8,-71l-29 -35c-8,-10 -8,-20 3,-30l-27 -30c-30,27 -32,57 -14,81l5 6c-23,33 -55,78 -89,118 1,1 2,3 4,4 -43,50 -80,82 -122,100l67 -114 -53 0 -6 9c-28,49 -60,84 -101,84 -36,0 -43,-36 -11,-90l15 -26c10,2 19,3 30,3 187,0 278,-251 113,-251 -29,0 -63,20 -87,62l-82 141c-31,-16 -47,-46 -47,-75 0,-24 11,-49 34,-66l-17 -31c-37,27 -54,63 -54,98 0,42 24,83 66,105l-16 27c-37,64 -30,135 44,135 22,0 41,-7 57,-17l-14 24c-71,22 -115,51 -115,90 0,51 78,61 115,-4l41 -69c55,-17 108,-55 166,-122 -1,-2 -2,-3 -3,-5 23,-27 43,-54 83,-108l7 9c7,9 9,19 3,30l-56 97c-22,39 -7,75 36,75 26,0 55,-17 84,-42 -1,24 16,42 46,42 21,0 48,-14 73,-34 3,20 19,34 46,34 25,0 53,-16 80,-39l-19 34 53 0 81 -140c81,-101 117,-88 94,-49l-68 119c-22,39 -7,75 36,75 28,0 59,-19 89,-46 -3,26 14,46 46,46 21,0 48,-14 73,-34 3,20 19,34 46,34 44,0 94,-47 137,-97 -4,-7 -13,-15 -20,-18zm-1083 -197l0 0c16,-27 33,-38 48,-38 84,0 25,170 -113,170l-11 0 76 -132zm-112 397l0 0c-11,20 -29,17 -29,3 0,-14 12,-29 53,-45l-24 43zm551 -191l0 0c-32,50 -63,74 -85,74 -12,0 -18,-8 -6,-29l73 -128c28,-49 85,-36 59,11l-41 72zm510 -3l0 0c-32,52 -64,77 -87,77 -12,0 -18,-8 -6,-29l73 -128c28,-49 85,-36 59,11l0 0 -40 69z"/>
   <path class="fil2" d="M3288 4608l-4 4c-38,44 -75,79 -98,79 -12,0 -18,-8 -6,-29l76 -133c23,-40 1,-69 -28,-69 -23,0 -47,12 -73,40l20 -34 -53 0 -85 147c-2,-2 -5,-3 -7,-4l-4 4c-24,26 -53,38 -80,39l50 -86c32,-55 3,-107 -47,-107 -41,0 -72,16 -102,69l-26 45 -23 39c-2,-1 -3,-2 -5,-3l-4 4c-44,50 -81,83 -122,100l144 -247 -53 0 -93 162c-41,37 -72,58 -82,54 -13,-6 0,-25 7,-36l103 -179 -53 0 -84 145c-2,-1 -3,-2 -5,-3l-4 4c-38,44 -75,79 -98,79 -12,0 -18,-8 -6,-29l76 -133c23,-40 1,-69 -28,-69 -23,0 -47,12 -73,40l20 -34 -53 0 -84 146c-2,-1 -3,-2 -5,-3l-4 4c-38,44 -75,79 -98,79 -12,0 -18,-8 -6,-29l85 -149 -30 0c2,-22 -21,-53 -55,-53 -28,0 -68,22 -90,61l-54 94c-4,-3 -8,-6 -12,-7l-4 4c-38,44 -85,79 -137,79 -36,0 -58,-36 -26,-90l15 -26c10,2 19,3 30,3 56,0 120,-29 162,-101 15,-26 21,-50 21,-71 0,-48 -31,-78 -70,-78 -29,0 -63,20 -87,62l-82 141c-31,-16 -47,-46 -47,-75 0,-24 11,-49 34,-66l-17 -31c-37,27 -54,63 -54,98 0,42 24,83 66,105l-16 27c-37,64 -15,135 59,135 59,0 102,-26 138,-61 -11,33 5,61 42,61 21,0 48,-14 73,-34 3,20 19,34 46,34 25,0 53,-16 80,-39l-19 34 53 0 81 -140c81,-101 117,-88 94,-49l-68 119c-22,39 -7,75 36,75 28,0 59,-20 90,-48 -6,29 7,48 33,48 25,0 54,-21 78,-43l-29 50c-71,21 -116,51 -116,90 0,51 77,61 115,-4l41 -69c44,-14 87,-41 133,-86 -7,74 91,90 150,16l12 0c19,0 45,-7 69,-20l-35 61 53 0 81 -140c81,-101 117,-88 94,-49l-68 119c-22,39 -7,75 36,75 44,0 94,-47 137,-97 -4,-7 -13,-15 -20,-18zm-1311 -197l0 0c16,-27 33,-38 48,-38 20,0 29,13 29,32 0,49 -60,138 -142,138l-11 0 76 -132zm185 206l0 0c-32,50 -63,74 -85,74 -12,0 -18,-8 -6,-29l73 -128c28,-49 85,-36 59,11l-41 72zm401 191l0 0c-11,20 -29,17 -29,3 0,-14 13,-29 53,-45l-24 43zm355 -197l0 0 -3 0c-17,0 -31,14 -31,31 0,7 2,13 5,18l-1 1c-25,43 -85,34 -54,-20l40 -69 25 -43c37,-63 88,-38 56,17l-38 66z"/>
   <path class="fil2" d="M4509 4626c-3,-8 -12,-16 -20,-18l-4 4c-19,23 -43,43 -63,57 17,-50 13,-127 46,-195l-40 -21c-22,30 -69,99 -117,154 0,0 0,0 0,0 0,0 0,0 -1,0l-4 4c-38,44 -75,79 -98,79 -12,0 -23,-12 -23,-35l0 -22c37,5 76,-20 101,-63l14 -24c49,-84 -31,-112 -85,-63l75 -130 -53 0 -150 261c-3,-3 -7,-5 -10,-6l-4 4c-38,44 -87,79 -124,79 -32,0 -52,-20 -27,-63l54 -94c30,-52 84,-44 53,11l-8 13 43 0 8 -13c28,-49 1,-85 -42,-85 -43,0 -76,22 -99,61l-52 89c-1,-1 -2,-1 -3,-2l-4 4c-38,44 -75,79 -98,79 -12,0 -18,-8 -6,-29l112 -197 -53 0 -94 164c-40,36 -71,57 -81,52 -13,-6 0,-25 7,-36l103 -179 -53 0 -102 177c-11,10 -23,20 -34,27 17,-50 13,-127 46,-195l-39 -21c-22,30 -143,191 -191,247 5,7 12,13 20,18 30,-34 130,-164 149,-188 -21,55 -10,153 -60,153 -18,0 -25,-19 -25,-19l-33 17c0,0 10,43 58,43 5,0 10,-1 15,-1 0,0 1,-1 1,-1 27,-4 53,-16 78,-33 0,21 13,35 35,35 29,0 61,-26 87,-51 -5,28 12,51 45,51 33,0 69,-26 104,-61 0,35 27,61 71,61 43,0 85,-24 122,-56l-29 51 53 0 60 -105 0 42c0,45 9,68 51,68 44,0 94,-47 137,-97 0,0 0,0 0,0 0,0 0,0 1,0 30,-34 56,-71 75,-96 -21,55 -10,153 -60,153 -18,0 -25,-19 -25,-19l-33 17c0,0 10,43 58,43 5,0 10,-1 15,-1 0,0 1,-1 1,-1 54,-7 107,-50 146,-96zm-350 -42l0 0 15 -26c61,-85 102,-61 84,-29l-25 44c-16,27 -62,47 -73,12z"/>
   <path class="fil2" d="M4507 4662c-17,0 -30,14 -30,31 0,17 13,30 30,30 17,0 31,-13 31,-30 0,-17 -14,-31 -31,-31z"/>
   <polygon class="fil2" points="4509,4641 4562,4641 4727,4354 4675,4354 "/>
  </g>
  <g id="_285126424">
   <path class="fil2" d="M1117 3855c0,4 -1,8 -2,12 -2,4 -4,8 -7,11 -3,3 -7,6 -12,8 -5,2 -10,3 -15,3 -6,0 -12,-1 -18,-4 -6,-2 -11,-6 -15,-10 -3,-4 -6,-9 -8,-15 -2,-6 -3,-12 -3,-18 0,-12 2,-23 6,-33 4,-10 10,-19 18,-27 3,-3 7,-7 12,-10 4,-3 9,-5 12,-8 4,-2 7,-4 10,-5 3,-1 5,-2 5,-2l19 28c-3,1 -7,3 -12,5 -4,2 -8,5 -12,8 -4,3 -7,7 -9,11 -3,4 -4,9 -4,14 9,0 17,3 24,8 7,5 10,13 10,23zm109 0l0 0c0,4 -1,8 -2,12 -2,4 -4,8 -7,11 -3,3 -7,6 -12,8 -5,2 -10,3 -15,3 -6,0 -12,-1 -18,-4 -6,-2 -11,-6 -15,-10 -3,-4 -6,-9 -8,-15 -2,-6 -3,-12 -3,-18 0,-12 2,-23 6,-33 4,-10 10,-19 18,-27 3,-3 7,-7 12,-10 4,-3 9,-5 12,-8 4,-2 7,-4 10,-5 3,-1 5,-2 5,-2l19 28c-3,1 -7,3 -12,5 -4,2 -8,5 -12,8 -4,3 -7,6 -9,11 -3,4 -4,9 -4,14 9,0 17,3 24,8 7,5 10,13 10,23z"/>
  </g>
  <g id="_285127240">
   <path class="fil2" d="M4909 4674c0,-4 1,-8 2,-12 2,-4 4,-8 7,-11 3,-3 7,-6 12,-8 5,-2 10,-3 15,-3 6,0 12,1 18,4 6,2 11,6 15,10 3,4 6,9 8,15 2,6 3,12 3,18 0,12 -2,23 -6,33 -4,10 -10,19 -18,27 -3,3 -7,7 -12,10 -4,3 -8,5 -12,8 -4,2 -7,4 -10,5 -3,1 -5,2 -5,2l-19 -28c3,-1 7,-3 12,-5 4,-2 8,-5 12,-8 4,-3 7,-7 9,-11 3,-4 4,-9 4,-14 -9,0 -17,-3 -24,-8 -7,-5 -10,-13 -10,-23zm-109 0l0 0c0,-4 1,-8 2,-12 2,-4 4,-8 7,-11 3,-3 7,-6 12,-8 5,-2 10,-3 15,-3 6,0 12,1 18,4 6,2 11,6 15,10 3,4 6,9 8,15 2,6 3,12 3,18 0,12 -2,23 -6,33 -4,10 -10,19 -18,27 -3,3 -7,7 -12,10 -4,3 -9,5 -12,8 -4,2 -7,4 -10,5 -3,1 -5,2 -5,2l-19 -28c3,-1 7,-3 12,-5 4,-2 8,-5 12,-8 4,-3 7,-7 9,-11 2,-4 4,-9 4,-14 -9,0 -17,-3 -24,-8 -7,-5 -10,-13 -10,-23z"/>
  </g>
 </g>
</svg>
