<?xml version="1.0" encoding="UTF-8" standalone="no"?>
<svg
   xmlns:dc="http://purl.org/dc/elements/1.1/"
   xmlns:cc="http://creativecommons.org/ns#"
   xmlns:rdf="http://www.w3.org/1999/02/22-rdf-syntax-ns#"
   xmlns:svg="http://www.w3.org/2000/svg"
   xmlns="http://www.w3.org/2000/svg"
   viewBox="0 0 613.00531 106.40627"
   height="40"
   width="230"
   xml:space="preserve"
   id="svg2"
   version="1.1"><metadata
     id="metadata8"><rdf:RDF><cc:Work
         rdf:about=""><dc:format>image/svg+xml</dc:format><dc:type
           rdf:resource="http://purl.org/dc/dcmitype/StillImage" /></cc:Work></rdf:RDF></metadata><defs
     id="defs6"><clipPath
       id="clipPath18"
       clipPathUnits="userSpaceOnUse"><path
         id="path16"
         d="M 0,79.805 H 459.754 V 0 H 0 Z" /></clipPath></defs><g
     transform="matrix(1.3333333,0,0,-1.3333333,0,106.40627)"
     id="g10"><g
       id="g12"><g
         clip-path="url(#clipPath18)"
         id="g14"><g
           transform="translate(44.4658,58.0669)"
           id="g20"><path
             id="path22"
             style="fill:#ffffff;fill-opacity:1;fill-rule:nonzero;stroke:none"
             d="m 0,0 c -3.572,2.979 -8.139,4.963 -12.902,4.963 -3.572,0 -8.338,-2.084 -8.338,-6.253 0,-4.368 5.261,-6.055 8.636,-7.146 l 4.964,-1.489 c 10.422,-3.077 18.461,-8.337 18.461,-20.448 0,-7.445 -1.787,-15.087 -7.742,-20.149 -5.855,-4.964 -13.697,-7.048 -21.24,-7.048 -9.43,0 -18.661,3.177 -26.305,8.537 l 8.338,15.683 c 4.865,-4.269 10.621,-7.742 17.271,-7.742 4.566,0 9.43,2.283 9.43,7.545 0,5.459 -7.643,7.344 -11.812,8.535 -12.208,3.475 -20.249,6.649 -20.249,21.143 0,15.188 10.818,25.112 25.807,25.112 7.543,0 16.775,-2.382 23.426,-6.154 z" /></g><g
           transform="translate(91.8311,60.8457)"
           id="g24"><path
             id="path26"
             style="fill:#ffffff;fill-opacity:1;fill-rule:nonzero;stroke:none"
             d="M 0,0 V -12.506 H 21.937 V -28.985 H 0 v -12.9 h 23.127 v -16.479 h -42.582 v 74.84 H 23.127 V -10e-4 L 0,-0.001 Z" /></g><g
           transform="translate(148.8721,18.959)"
           id="g28"><path
             id="path30"
             style="fill:#ffffff;fill-opacity:1;fill-rule:nonzero;stroke:none"
             d="m 0,0 h 4.367 c 11.612,0 21.539,6.352 21.539,20.942 0,13.401 -8.834,20.944 -21.341,20.944 L 0,41.886 Z M -19.455,58.364 H 8.139 c 20.844,0 38.016,-16.377 38.016,-37.42 0,-21.041 -17.271,-37.42 -38.016,-37.42 h -27.594 z" /></g><g
           transform="translate(224.3389,41.1929)"
           id="g32"><path
             id="path34"
             style="fill:#ffffff;fill-opacity:1;fill-rule:nonzero;stroke:none"
             d="m 0,0 c 0,-12.905 9.529,-22.333 21.141,-22.333 11.613,0 21.143,9.43 21.143,22.333 0,10.323 -9.526,19.752 -21.143,19.752 C 9.528,19.752 0,10.322 0,0 m 62.534,0.099 c 0,-24.219 -17.371,-41.292 -41.393,-41.292 -24.02,0 -41.391,17.071 -41.391,41.292 0,22.632 19.852,38.513 41.391,38.513 21.539,0 41.393,-15.881 41.393,-38.513" /></g><g
           transform="translate(297.2383,77.3228)"
           id="g36"><path
             id="path38"
             style="fill:#ffffff;fill-opacity:1;fill-rule:nonzero;stroke:none"
             d="M 0,0 H 19.454 L 55.09,-45.757 h 0.196 V 0 H 74.739 V -74.839 H 55.286 L 19.651,-28.983 H 19.454 V -74.839 H 0 Z" /></g><g
           transform="translate(420.9453,54.1958)"
           id="g40"><path
             id="path42"
             style="fill:#ffffff;fill-opacity:1;fill-rule:nonzero;stroke:none"
             d="M 0,0 H -0.199 L -8.238,-23.824 H 7.939 Z m -13.601,-38.71 -5.16,-13.002 h -20.645 l 28.785,74.839 H 10.621 L 38.809,-51.712 H 18.063 l -4.862,13.002 z" /></g></g></g></g></svg>